<svg xmlns="http://www.w3.org/2000/svg" width="18.75" height="20" viewBox="0 0 18.75 20">
  <path id="book" d="M1.086,18.168V4.908H2.572v9.774c0,.768.5.694,1.109.835a7.846,7.846,0,0,1,3.336,1.522c.172.16.407.319.471.558-1.649-.384-2.6.19-3.592.352-.383.063-.912.125-1.327.159l-1.483.06ZM3.715,1.25a7.662,7.662,0,0,1,2.058.514c1.256.5,1.823,1.5,2.56,2.641a1.15,1.15,0,0,1,.3,1.017V17.14a7.2,7.2,0,0,0-2.057-1.772A13.725,13.725,0,0,0,5.25,14.8,7.6,7.6,0,0,0,3.715,14.4V1.25ZM17.433,18.111c-2.885,0-2.132-.182-4.587-.5a4.2,4.2,0,0,0-2.406.308,3.327,3.327,0,0,1-.666.306V5.022c.574-.153,1.06-1.129,2.9-.9a22.912,22.912,0,0,0,3.274.67H17.6c0,.615-.059,1.016-.057,1.6.009,3.909-.114,7.807-.114,11.717ZM2.572.85V3.765H.514A.516.516,0,0,0,0,4.279V18.854c0,.568,1.214.4,1.829.4,2.648,0,3.307-.629,4.287-.629a2.39,2.39,0,0,1,2.026.546c.921.692.7,1.241,1.728.407a3.358,3.358,0,0,1,2.394-.873c.757.115,1.081.11,1.944.286a13.594,13.594,0,0,0,3.682.262c.61,0,.691-.418.687-1.027l0-3.431c0-.579.057-1.028.057-1.657,0-2.35.057-4.512.057-6.859l.059-1.658c0-.651-.093-.963-.742-.974a10.125,10.125,0,0,1-3.254-.233c-1.761-.55-3.178-.794-4.8.189a3.322,3.322,0,0,1-.582.333c-.193-.288-.36-.571-.56-.869A10.126,10.126,0,0,0,7.521,1.5a4.554,4.554,0,0,0-.889-.6A12.666,12.666,0,0,0,3.193,0a.63.63,0,0,0-.486.241A1.3,1.3,0,0,0,2.572.85Z" transform="translate(0 0)" fill="#93a4ab" fill-rule="evenodd"/>
</svg>
