<svg xmlns="http://www.w3.org/2000/svg" width="25.512" height="15.014" viewBox="0 0 25.512 15.014"><g transform="translate(5.513 -2.493)"><g transform="translate(0 2.493)"><path d="M-4154.276-262.48c-.191,0-.41,0-.724-.007v-.376a4.322,4.322,0,0,0,.318-.887,6.2,6.2,0,0,1,1.3-2.529,7.867,7.867,0,0,1,2.882-2.216,4.813,4.813,0,0,1-1.922-3.255,4.965,4.965,0,0,1,1.092-3.931l.314-.323.023-.021.023-.022.3-.26a4.645,4.645,0,0,1,3.128-1.188,5.172,5.172,0,0,1,2.842.871,4.852,4.852,0,0,1,1.882,2.367,5.18,5.18,0,0,1,.032,3.39,4.359,4.359,0,0,1-1.664,2.319,2.108,2.108,0,0,0,.648.448,6.358,6.358,0,0,1,2.27,1.936c.518.664,1.611,2.511,1.489,3.676h-1.533a2.69,2.69,0,0,1-.217-.587,5.544,5.544,0,0,0-2-3.085,5.792,5.792,0,0,0-3.656-1.326,6.423,6.423,0,0,0-.89.064,5.926,5.926,0,0,0-3.723,2.1,4.217,4.217,0,0,0-1.144,2.348C-4153.259-262.555-4153.268-262.48-4154.276-262.48Zm6.775-13.507a3.5,3.5,0,0,0-3.5,3.5,3.5,3.5,0,0,0,3.5,3.5,3.5,3.5,0,0,0,3.5-3.5A3.5,3.5,0,0,0-4147.5-275.987Zm-13.011,11.921h0v-.53a2.345,2.345,0,0,0,.157-.553,4.214,4.214,0,0,1,.792-1.817,4.218,4.218,0,0,1,1.848-1.608c-1.16-1.99-1.593-3.562-.376-5.7a5.136,5.136,0,0,1,4.542-2.572c.129,0,.261,0,.393.013l-.93,1.709a2.6,2.6,0,0,1-.43.153,4.865,4.865,0,0,0-.539.187,3.306,3.306,0,0,0-.872.552,3.4,3.4,0,0,0-.289,4.832,1.7,1.7,0,0,0,.23.217l.005,0c.37.314.929.788.434,1.461a1.777,1.777,0,0,1-.719.391,3.333,3.333,0,0,0-2.536,3.261Zm25.511-.173h0l-1.66-.005a3.243,3.243,0,0,0-2.468-3.173,1.732,1.732,0,0,1-.7-.38c-.48-.655.064-1.117.425-1.422a1.749,1.749,0,0,0,.229-.216,3.309,3.309,0,0,0-.284-4.7,3.233,3.233,0,0,0-.846-.537,4.718,4.718,0,0,0-.528-.184,2.57,2.57,0,0,1-.416-.147l-.905-1.662c.137-.009.265-.012.382-.012a4.99,4.99,0,0,1,4.417,2.5c1.185,2.083.764,3.612-.363,5.549a4.1,4.1,0,0,1,1.8,1.565,4.068,4.068,0,0,1,.771,1.766,2.322,2.322,0,0,0,.151.54v.516Z" transform="translate(4155 277.493)" fill="#93a4ab"/></g></g></svg>