<?xml version="1.0" encoding="UTF-8"?>
<!DOCTYPE svg PUBLIC "-//W3C//DTD SVG 1.1//EN" "http://www.w3.org/Graphics/SVG/1.1/DTD/svg11.dtd">
<!-- Creator: CorelDRAW X8 -->
<svg xmlns="http://www.w3.org/2000/svg" xml:space="preserve" width="8.4666mm" height="8.1254mm" version="1.1" style="shape-rendering:geometricPrecision; text-rendering:geometricPrecision; image-rendering:optimizeQuality; fill-rule:evenodd; clip-rule:evenodd"
viewBox="0 0 35 34"
 xmlns:xlink="http://www.w3.org/1999/xlink">
 <defs>
  <style type="text/css">
   <![CDATA[
    .fil0 {fill:#CCCCCC}
   ]]>
  </style>
 </defs>
 <g id="Layer_x0020_1">
  <metadata id="CorelCorpID_0Corel-Layer"/>
  <path class="fil0" d="M0 25l0 2c0,0 0,1 1,2 1,2 4,4 7,3 1,-1 1,-1 2,0 1,0 1,0 2,1 4,1 9,1 13,-1 1,-1 1,-1 2,0 2,0 4,0 6,-1 2,-2 2,-3 2,-4l0 -2c0,-1 0,-2 -1,-3 0,0 -1,-1 -2,-1 0,-4 -1,-7 -2,-10 -1,-1 -4,-4 -6,-5 -1,-8 -12,-8 -13,0 -2,1 -4,4 -6,5 -1,3 -2,6 -2,10 -1,0 -1,1 -2,1 -1,2 -1,2 -1,3zm28 -2c-4,1 -2,7 2,6 2,0 3,-2 2,-4 0,-2 -2,-3 -4,-2zm-11 -20c-5,1 -3,8 2,6 1,0 3,-2 2,-4 0,-1 -2,-3 -4,-2zm-12 19c-1,1 -3,3 -2,5 1,4 8,2 7,-2 -1,-2 -3,-3 -5,-3zm1 -2c4,0 6,3 6,6 0,2 0,2 -1,3 2,1 4,2 7,2 2,0 5,-1 6,-2 -3,-5 0,-9 5,-9 1,-4 -1,-8 -3,-9 -1,-1 -2,-2 -3,-2 -1,2 -2,3 -5,3 -3,0 -5,-1 -6,-3 -1,0 -4,3 -4,4 -2,2 -2,4 -2,7z"/>
 </g>
</svg>
