<svg xmlns="http://www.w3.org/2000/svg" width="14.962" height="15.013" viewBox="0 0 14.962 15.013"><g transform="translate(0 0)"><path d="M-4154.276-262.48h0c-.2,0-.446,0-.724-.007v-.376a4.3,4.3,0,0,0,.319-.887,6.188,6.188,0,0,1,1.3-2.529,7.849,7.849,0,0,1,2.882-2.215,4.813,4.813,0,0,1-1.923-3.254,4.966,4.966,0,0,1,1.093-3.932l.314-.323.023-.021.023-.021.295-.26a4.646,4.646,0,0,1,3.128-1.188,5.172,5.172,0,0,1,2.843.871,4.853,4.853,0,0,1,1.882,2.367,5.179,5.179,0,0,1,.03,3.39,4.359,4.359,0,0,1-1.662,2.318,2.1,2.1,0,0,0,.646.447,6.362,6.362,0,0,1,2.27,1.936c.518.664,1.612,2.511,1.49,3.676h-1.533a2.682,2.682,0,0,1-.219-.591,5.544,5.544,0,0,0-2-3.082,5.8,5.8,0,0,0-3.659-1.326,6.422,6.422,0,0,0-.889.064,5.928,5.928,0,0,0-3.722,2.1,4.206,4.206,0,0,0-1.145,2.349C-4153.259-262.555-4153.268-262.48-4154.276-262.48Zm6.775-13.507a3.5,3.5,0,0,0-3.5,3.5,3.5,3.5,0,0,0,3.5,3.5,3.5,3.5,0,0,0,3.5-3.5A3.5,3.5,0,0,0-4147.5-275.987Z" transform="translate(4155 277.493)" fill="#93a4ab"/></g></svg>