<svg xmlns="http://www.w3.org/2000/svg" width="19.03" height="20" viewBox="0 0 19.03 20">
  <path id="universe" d="M0,10.466A9.529,9.529,0,0,1,5.741,1.732,1.427,1.427,0,0,1,8.5,1.006,9.515,9.515,0,1,1,0,10.467Zm1,0A8.508,8.508,0,1,0,8.434,2.022,1.427,1.427,0,0,1,6.3,2.584,8.526,8.526,0,0,0,1,10.466Zm3.771,4.672a1.427,1.427,0,0,1-1.5-2.35,6.66,6.66,0,0,1,9.9-7.887A1.427,1.427,0,0,1,15.076,6.81a6.66,6.66,0,0,1-10.3,8.328Zm4.743.965a5.635,5.635,0,0,0,4.8-8.586,1.427,1.427,0,0,1-1.85-1.85,5.636,5.636,0,0,0-8.254,6.7h.071a1.427,1.427,0,0,1,1.263,2.093A5.614,5.614,0,0,0,9.515,16.1ZM6.66,10.466a2.854,2.854,0,1,1,2.854,2.855A2.854,2.854,0,0,1,6.66,10.466Z" transform="translate(0 0.018)" fill="#93a4ab"/>
</svg>
