<svg xmlns="http://www.w3.org/2000/svg" width="20" height="10.007" viewBox="0 0 20 10.007">
  <g id="videogame" transform="translate(0 0)">
    <path id="Path_269" data-name="Path 269" d="M15,8.75a3.85,3.85,0,0,1-2.332-.832c-.2-.174-.43-.418-.637-.418H7.969a.5.5,0,0,0-.342.166A3.741,3.741,0,0,1,1.6,3.438,3.64,3.64,0,0,1,2.646,2.1a3.471,3.471,0,0,1,.9-.543A4.1,4.1,0,0,1,5.156,1.25h9.687a4.078,4.078,0,0,1,1.58.3,3.023,3.023,0,0,1,.616.321,3.744,3.744,0,0,1,.117,6.189,3.816,3.816,0,0,1-.595.343,3.582,3.582,0,0,1-.7.239A5.284,5.284,0,0,1,15,8.75ZM0,4.766A4.759,4.759,0,0,0,.89,7.86a2.875,2.875,0,0,0,.253.333c.115.129.167.207.293.333a5.988,5.988,0,0,0,.635.537,4.881,4.881,0,0,0,2.7.937,4.858,4.858,0,0,0,2.953-.8l.64-.453h3.281l.64.453a3.816,3.816,0,0,0,.71.384,5,5,0,0,0,5.573-1.062,5.445,5.445,0,0,0,.532-.64A4.942,4.942,0,0,0,20,5.234a4.778,4.778,0,0,0-.469-2.382A5.034,5.034,0,0,0,15.234,0H4.688A5.058,5.058,0,0,0,.469,2.852,4.9,4.9,0,0,0,0,4.766Z" transform="translate(0 0)" fill="#93a4ab" fill-rule="evenodd"/>
    <path id="Path_270" data-name="Path 270" d="M5,3.75H3.75V5H5V6.25H6.25V5H7.5V3.75H6.25V2.5H5Z" transform="translate(0 0)" fill="#93a4ab" fill-rule="evenodd"/>
    <path id="Path_271" data-name="Path 271" d="M13.75,3.047A.628.628,0,1,0,15,3.164a.628.628,0,0,0-1.25-.117Z" transform="translate(0 0)" fill="#93a4ab" fill-rule="evenodd"/>
    <path id="Path_272" data-name="Path 272" d="M12.5,4.3a.628.628,0,1,0,1.25.117A.628.628,0,0,0,12.5,4.3Z" transform="translate(0 0)" fill="#93a4ab" fill-rule="evenodd"/>
    <path id="Path_273" data-name="Path 273" d="M13.75,5.586A.628.628,0,1,0,15,5.547a.628.628,0,0,0-1.25.039Z" transform="translate(0 0)" fill="#93a4ab" fill-rule="evenodd"/>
    <path id="Path_274" data-name="Path 274" d="M15,4.336A.628.628,0,1,0,16.25,4.3.628.628,0,0,0,15,4.336Z" transform="translate(0 0)" fill="#93a4ab" fill-rule="evenodd"/>
  </g>
</svg>
